<svg xmlns="http://www.w3.org/2000/svg" viewBox="0 0 60.97 92.54"><defs><style>.cls-1{fill:none;stroke:#1a171b;stroke-miterlimit:10;}</style></defs><title>Asset 1</title><g id="Layer_2" data-name="Layer 2"><g id="Layer_1-2" data-name="Layer 1"><path class="cls-1" d="M41.72,70.19H19.25a20.22,20.22,0,0,0-1.07-6.77,19.75,19.75,0,0,0-3.85-6.77c-3-3.38-3.27-3.23-6.06-6.56-1.21-1.45-4-4.47-5.48-8.36A32.28,32.28,0,0,1,.5,30.47,30.59,30.59,0,0,1,3.41,17.88a27.5,27.5,0,0,1,5.69-8,31.55,31.55,0,0,1,8.62-6.3A30.49,30.49,0,0,1,30.49.5,30.49,30.49,0,0,1,43.25,3.58a31.4,31.4,0,0,1,8.62,6.3,27.5,27.5,0,0,1,5.69,8,30.59,30.59,0,0,1,2.91,12.59,32.28,32.28,0,0,1-2.29,11.26c-1.46,3.89-4.27,6.91-5.48,8.36-2.79,3.33-3.07,3.18-6.06,6.56a19.75,19.75,0,0,0-3.85,6.77A20.48,20.48,0,0,0,41.72,70.19Z"/><line class="cls-1" x1="19.25" y1="74.19" x2="41.72" y2="74.19"/><line class="cls-1" x1="30.76" y1="70.49" x2="30.76" y2="32.21"/><line class="cls-1" x1="36.77" y1="25.7" x2="30.76" y2="32.21"/><line class="cls-1" x1="20.54" y1="34.47" x2="30.76" y2="43.26"/><line class="cls-1" x1="40.13" y1="47.04" x2="30.76" y2="55.59"/><circle class="cls-1" cx="39.82" cy="22.39" r="4.5"/><circle class="cls-1" cx="43.3" cy="43.85" r="4.5"/><circle class="cls-1" cx="17.67" cy="31.01" r="4.5"/><line class="cls-1" x1="8.24" y1="92.04" x2="53.29" y2="92.04"/><line class="cls-1" x1="30.7" y1="74.19" x2="30.76" y2="83.81"/><path class="cls-1" d="M44,92a15.52,15.52,0,0,0-13.53-8.23A15.53,15.53,0,0,0,17,92"/></g></g></svg>