<svg xmlns="http://www.w3.org/2000/svg" viewBox="0 0 71.97 102.8"><defs><style>.cls-1,.cls-2,.cls-3{fill:none;stroke:#1a171b;stroke-miterlimit:10;}.cls-1{stroke-width:12px;}.cls-2{stroke-width:6px;}.cls-3{stroke-width:4px;}</style></defs><title>Asset 4</title><g id="Layer_2" data-name="Layer 2"><g id="Layer_1-2" data-name="Layer 1"><path class="cls-1" d="M47.22,75.69H24.75a20.22,20.22,0,0,0-1.07-6.77,19.59,19.59,0,0,0-3.85-6.76c-3-3.39-3.27-3.24-6.06-6.57-1.21-1.45-4-4.47-5.48-8.36A32.28,32.28,0,0,1,6,36,30.52,30.52,0,0,1,8.91,23.39a27.22,27.22,0,0,1,5.69-8,31.44,31.44,0,0,1,8.62-6.31A30.49,30.49,0,0,1,36,6,30.49,30.49,0,0,1,48.75,9.08a31.29,31.29,0,0,1,8.62,6.31,27.22,27.22,0,0,1,5.69,8A30.52,30.52,0,0,1,66,36a32.28,32.28,0,0,1-2.29,11.26c-1.46,3.89-4.27,6.91-5.48,8.36-2.79,3.33-3.07,3.18-6.06,6.57a19.59,19.59,0,0,0-3.85,6.76A20.48,20.48,0,0,0,47.22,75.69Z"/><line class="cls-2" x1="18.86" y1="99.8" x2="53.32" y2="99.8"/><rect class="cls-3" x="20.79" y="85.54" width="30.51" height="6.77"/></g></g></svg>