<svg xmlns="http://www.w3.org/2000/svg" viewBox="0 0 65.97 97.54"><defs><style>.cls-1{fill:none;stroke:#1a171b;stroke-miterlimit:10;stroke-width:6px;}</style></defs><title>Asset 3</title><g id="Layer_2" data-name="Layer 2"><g id="Layer_1-2" data-name="Layer 1"><path class="cls-1" d="M44.22,72.69H21.75a20.22,20.22,0,0,0-1.07-6.77,19.75,19.75,0,0,0-3.85-6.77c-3-3.38-3.27-3.23-6.06-6.56-1.21-1.45-4-4.47-5.48-8.36A32.28,32.28,0,0,1,3,33,30.52,30.52,0,0,1,5.91,20.39a27.22,27.22,0,0,1,5.69-8,31.44,31.44,0,0,1,8.62-6.31A30.49,30.49,0,0,1,33,3,30.49,30.49,0,0,1,45.75,6.08a31.29,31.29,0,0,1,8.62,6.31,27.22,27.22,0,0,1,5.69,8A30.52,30.52,0,0,1,63,33a32.28,32.28,0,0,1-2.29,11.26c-1.46,3.89-4.27,6.91-5.48,8.36-2.79,3.33-3.07,3.18-6.06,6.56a19.75,19.75,0,0,0-3.85,6.77A20.48,20.48,0,0,0,44.22,72.69Z"/><line class="cls-1" x1="21.75" y1="76.69" x2="44.22" y2="76.69"/><line class="cls-1" x1="33.26" y1="72.99" x2="33.26" y2="34.71"/><line class="cls-1" x1="39.27" y1="28.2" x2="33.26" y2="34.71"/><line class="cls-1" x1="23.04" y1="36.98" x2="33.26" y2="45.76"/><line class="cls-1" x1="42.63" y1="49.54" x2="33.26" y2="58.09"/><circle class="cls-1" cx="42.32" cy="24.89" r="4.5"/><circle class="cls-1" cx="45.8" cy="46.35" r="4.5"/><circle class="cls-1" cx="20.17" cy="33.51" r="4.5"/><line class="cls-1" x1="10.74" y1="94.54" x2="55.79" y2="94.54"/><line class="cls-1" x1="33.2" y1="76.69" x2="33.26" y2="86.31"/><path class="cls-1" d="M46.52,94.54A15.52,15.52,0,0,0,33,86.31a15.53,15.53,0,0,0-13.54,8.23"/></g></g></svg>