<svg xmlns="http://www.w3.org/2000/svg" viewBox="0 0 63.97 95.54"><defs><style>.cls-1{fill:none;stroke:#1a171b;stroke-miterlimit:10;stroke-width:4px;}</style></defs><title>Asset 2</title><g id="Layer_2" data-name="Layer 2"><g id="Layer_1-2" data-name="Layer 1"><path class="cls-1" d="M43.22,71.69H20.75a20.22,20.22,0,0,0-1.07-6.77,19.75,19.75,0,0,0-3.85-6.77c-3-3.38-3.27-3.23-6.06-6.56-1.21-1.45-4-4.47-5.48-8.36A32.28,32.28,0,0,1,2,32,30.52,30.52,0,0,1,4.91,19.39a27.22,27.22,0,0,1,5.69-8,31.44,31.44,0,0,1,8.62-6.31A30.49,30.49,0,0,1,32,2,30.49,30.49,0,0,1,44.75,5.08a31.29,31.29,0,0,1,8.62,6.31,27.22,27.22,0,0,1,5.69,8A30.52,30.52,0,0,1,62,32a32.28,32.28,0,0,1-2.29,11.26c-1.46,3.89-4.27,6.91-5.48,8.36-2.79,3.33-3.07,3.18-6.06,6.56a19.75,19.75,0,0,0-3.85,6.77A20.48,20.48,0,0,0,43.22,71.69Z"/><line class="cls-1" x1="20.75" y1="75.69" x2="43.22" y2="75.69"/><line class="cls-1" x1="32.26" y1="71.99" x2="32.26" y2="33.71"/><line class="cls-1" x1="38.27" y1="27.2" x2="32.26" y2="33.71"/><line class="cls-1" x1="22.04" y1="35.98" x2="32.26" y2="44.76"/><line class="cls-1" x1="41.63" y1="48.54" x2="32.26" y2="57.09"/><circle class="cls-1" cx="41.32" cy="23.89" r="4.5"/><circle class="cls-1" cx="44.8" cy="45.35" r="4.5"/><circle class="cls-1" cx="19.17" cy="32.51" r="4.5"/><line class="cls-1" x1="9.74" y1="93.54" x2="54.79" y2="93.54"/><line class="cls-1" x1="32.2" y1="75.69" x2="32.26" y2="85.31"/><path class="cls-1" d="M45.52,93.54A15.52,15.52,0,0,0,32,85.31a15.53,15.53,0,0,0-13.54,8.23"/></g></g></svg>